<?xml version="1.0" encoding="UTF-8"?>
<svg version="1.1" viewBox="0 0 1e3 600" xmlns="http://www.w3.org/2000/svg">
<rect width="1e3" height="600" fill="Black"/>
<rect transform="matrix(.85226 0 0 .85226 0 14.017)" x="146.67" y="168.89" width="333.33" height="333.33" rx="13.333" ry="13.333" fill="Yellow"/>
<path transform="matrix(.85226 0 0 .85226 0 14.017)" d="m292.96 327.15q-0.84245 5.8972-0.84245 11.467 0 5.5695 0.84245 10.437 0.84245 4.8909 2.4572 8.8457 1.5913 3.9782 4.1187 6.6694 3.206 3.3698 8.3543 4.7973 5.1249 1.4275 11.537 0.58504 1.6849-6.5758 3.9548-12.637 2.2699-6.061 4.3761-11.794 2.1061-5.7334 3.6272-11.28 1.5211-5.5695 1.5211-10.952 0-0.51483 0.16381-0.51483t0.42123 0.51483q0.25742 0.49143 0.25742 0.67864 2.0125 6.2248 1.2637 12.543-0.77225 6.3184-2.8784 12.894-2.1061 6.5758-4.7973 13.386-2.6912 6.8332-4.3761 14.064-0.84245 3.206-1.0063 7.5119-0.16381 4.2825 0.58504 8.7521 0.74885 4.4697 2.6912 8.8457 1.9423 4.3761 5.4759 7.7459 0.16381 0.35102 0.51483 0.67864l0.16381 0.16381t-0.51483 0q-0.16381 0-0.32762-0.16381-4.5399-3.0188-7.4885-6.9034-2.9486-3.8846-4.3995-8.0033-1.4275-4.1187-1.6849-8.2607-0.23401-4.1187 0.42123-7.4885-5.0547 1.1701-10.016 0.32762-4.9611-0.84245-9.1734-3.0188-0.84245-0.35102-1.7785-1.3573-0.93606-1.0063-0.74885-1.1701 0 0 2.5976 0.42123 2.621 0.42123 5.8972 0.84245 3.2996 0.42123 6.5758 0.65524 3.2762 0.25742 4.7973 0.093606 0.51483-0.16381 1.0999-0.25742 0.58504-0.070204 1.4275-0.42123 0-0.84245 0.16381-1.5913 0.18721-0.77225 0.51483-1.6147-5.8972 1.3573-11.467 0.35102-5.5461-1.0063-9.9222-4.7271-3.557-3.0188-5.6632-7.3247-2.1061-4.3059-3.1826-9.3606-1.0999-5.0547-1.2637-10.531-0.18721-5.4759 0.32762-10.858 0.67864-8.5883 3.3698-17.364 2.6912-8.7521 7.1608-16.241 4.4697-7.5119 10.624-12.988 6.1312-5.4759 13.9-7.6523 3.5336-1.0297 7.5821-0.84245 4.0251 0.16381 7.5821 1.4977 3.5336 1.3573 6.1312 3.791 2.621 2.4572 3.2996 6.1546 0.84245 4.0485-0.67864 7.8395-1.5211 3.791-4.2123 6.5758-2.6912 2.7848-6.061 3.9548-3.3698 1.1701-6.412-0.16381-1.1701-0.35102-0.49143-0.67864 0.32762-0.16381 0.49143 0 0.16381 0.16381 0.51483 0.16381 2.0125 0.35102 4.5399-0.84245 2.5274-1.1701 4.6335-3.3698 2.1061-2.1763 3.3698-5.1249 1.2637-2.9486 0.77225-5.9908-0.51483-2.5274-2.1061-4.3761-1.6147-1.8487-4.1421-3.0422-2.5274-1.1701-5.6398-1.5211-3.1124-0.32762-6.646 0.35102-6.2482 1.1701-11.631 5.6398-5.4057 4.4697-9.618 10.952-4.2123 6.4822-7.0672 14.415-2.855 7.9097-3.8846 15.819zm13.315 55.602q2.3635 0.35102 2.6912 0.51483 0.35102 0.16381-2.5274 0.16381-4.7037 0-9.501-1.5211-4.8207-1.4977-9.033-4.2825-4.2123-2.7848-7.5821-6.8332-3.3698-4.0485-5.0547-8.916-3.6974-10.624-4.3761-20.312-0.67864-9.6882 0.84245-19.47 0.84245-5.2185 2.6912-11.958 1.8721-6.7396 5.1483-13.807 3.2762-7.0906 8.1671-13.994 4.8909-6.9034 11.794-12.637 7.2545-6.061 16.17-8.0033 8.9394-1.9423 17.036-0.58504 8.0735 1.3573 14.322 5.8036 6.2248 4.4697 8.2373 11.045 0.18721 0.32762 0.51483 1.3573 0.32762 1.0063 0 1.1701-0.32762 0.16381-0.67864-0.67864-0.32762-0.84245-1.1701-1.8487-7.0906-9.5946-16.007-12.122-8.9394-2.5274-17.621-0.51483-8.6585 2.0125-16.334 7.6757-7.6757 5.6398-12.216 12.543-7.9097 11.631-11.794 25.367-3.8846 13.713-3.6974 27.871 0.16381 6.9034 1.4977 13.994 1.3573 7.0672 4.8909 13.807 3.3698 6.5758 10.039 10.952 6.646 4.3761 13.549 5.2185zm-23.916-63.839q1.1701-8.7755 4.0485-17.27 2.855-8.5181 7.6523-15.422 4.7973-6.9034 11.888-11.958 7.0672-5.0547 16.685-7.0906 3.1826-0.67864 7.3247-0.58504 4.1187 0.093606 8.2607 1.5211 4.1187 1.4275 7.7459 4.2825 3.6272 2.8784 5.9674 7.9331 2.1997 4.8909 1.6147 9.6882t-2.6912 8.5883q-2.1061 3.791-5.2419 6.3184-3.1124 2.5274-6.1312 2.855-0.51483 0.18721-1.2637 0.093606-0.77225-0.093606-0.77225-0.42123t0.16381-0.25742q0.18721 0.093606 1.8721-0.58504 1.1701-0.51483 2.7614-1.7785 1.6147-1.2637 3.0422-3.2762 1.4275-2.0125 2.621-4.7271 1.1701-2.6912 1.4977-5.8972 0.35102-3.3698-0.84245-6.3886-1.1701-3.0422-3.44-5.4759-2.2699-2.4572-5.3121-4.1421-3.0422-1.6849-6.2248-2.1763-9.9456-1.5211-18.043 2.5976-8.0735 4.1421-14.322 11.303-6.2248 7.1608-10.437 16.007-4.2123 8.8457-6.412 16.755 0 0.16381-0.32762 1.1935-0.35102 1.0063-0.67864 2.1763-0.32762 1.1935-0.58504 2.1061-0.25742 0.93606-0.42123 0.93606-0.16381 0-0.25742-0.93606-0.093606-0.91266 0-2.1763 0.093606-1.2637 0.16381-2.3635 0.093606-1.0999 0.093606-1.4275zm57.778 59.463q-1.0063 3.7208-2.9486 9.3606-1.9189 5.6398-3.44 10.367-0.51483 1.3339-0.84245 1.3339-0.67864 0-0.77225-0.58504-0.070204-0.58504-0.070204-0.93606-0.51483-4.5399-0.16381-8.6585 0.32762-4.1421 1.3339-8.1905 1.0063-4.0251 2.4572-8.0735 1.4275-4.0485 2.9486-8.5883 2.0125-5.8972 3.6974-11.56 1.6849-5.6398 2.0125-12.707 0-0.84245 0.093606-0.93606 0.093606-0.070204 0.42123-0.070204l0.51483 1.0063q1.6849 3.5336 1.4275 8.7521-0.25742 5.2185-1.4275 10.788-1.1935 5.5695-2.7848 10.624-1.6147 5.0547-2.4572 8.0735zm0.51483-26.795q-2.3635 6.412-5.2185 13.315-2.8784 6.9034-5.8972 13.315-0.16381 0.16381-0.58504 1.0999-0.42123 0.91266-0.93606 0.74885-0.32762-0.16381-0.32762-1.0999 0-0.91266 0-1.4275 0-1.5211 0.32762-3.791 0.32762-2.2699 0.84245-4.5399 0.51483-2.2699 1.0999-4.4697 0.58504-2.1997 1.2637-3.6974 0.32762-1.0297 1.5211-5.4759 1.1701-4.4697 2.3401-9.7818 1.1935-5.3121 1.8721-10.367 0.65524-5.0547 0-7.5821-0.35102-0.84245 0-1.1701 0.32762 0 0.58504 0.42123 0.25742 0.42123 0.58504 0.74885 1.5211 2.3635 2.3635 5.4759 0.84245 3.1124 1.0999 6.412 0.23401 3.2762 0 6.3886-0.25742 3.1358-0.93606 5.4759zm-9.9456 49.705q2.0359 4.2123 4.8909 7.9331 0.51483 0.49143 0.16381 0.84245-0.49143 0.32762-1.0063 0-0.32762-0.16381-0.51483-0.35102-2.3401-1.3339-3.8612-2.6912-1.5211-1.3339-3.0422-5.2185-0.49143-1.3573-0.91266-3.4634-0.42123-2.1061-0.60844-4.0251-0.16381-1.9423-0.070204-3.2996 0.070204-1.3339 0.58504-1.1701 0.84245 0 1.4275 2.0125 0.58504 2.0359 0.77225 2.5274 0.65524 1.8487 1.0063 3.5336 0.32762 1.6849 1.1701 3.3698z" fill="Black"/>
<path transform="matrix(.85226 0 0 .85226 0 14.017)" d="m580.28 316.08q-0.64091 4.4864-0.64091 8.7235 0 4.2371 0.64091 7.9402 0.64091 3.7208 1.8693 6.7295 1.2106 3.0265 3.1333 5.0739 2.439 2.5636 6.3557 3.6496 3.8989 1.086 8.7769 0.44508 1.2818-5.0027 3.0087-9.6136 1.7269-4.611 3.3292-8.9727 1.6023-4.3617 2.7595-8.5811 1.1572-4.2371 1.1572-8.3318 0-0.39167 0.12462-0.39167 0.12462 0 0.32045 0.39167 0.19583 0.37386 0.19583 0.51629 1.5311 4.7356 0.96136 9.5424-0.5875 4.8068-2.1898 9.8095-1.6023 5.0027-3.6496 10.183-2.0473 5.1985-3.3292 10.7-0.64091 2.439-0.76553 5.7148-0.12462 3.258 0.44508 6.6583 0.5697 3.4004 2.0473 6.7295 1.4777 3.3292 4.1659 5.8928 0.12462 0.26705 0.39167 0.51629l0.12462 0.12462t-0.39167 0q-0.12462 0-0.24924-0.12462-3.4538-2.2966-5.697-5.2519-2.2432-2.9553-3.347-6.0886-1.086-3.1333-1.2818-6.2845-0.17803-3.1333 0.32045-5.697-3.8455 0.89015-7.6197 0.24924-3.7742-0.64091-6.9788-2.2966-0.64091-0.26705-1.353-1.0326-0.71212-0.76553-0.5697-0.89015 0 0 1.9761 0.32045 1.9939 0.32045 4.4864 0.64091 2.5102 0.32045 5.0027 0.49848 2.4924 0.19583 3.6496 0.071212 0.39167-0.12462 0.83674-0.19583 0.44508-0.053409 1.086-0.32045 0-0.64091 0.12462-1.2106 0.14242-0.5875 0.39167-1.2284-4.4864 1.0326-8.7235 0.26705-4.2193-0.76553-7.5485-3.5962-2.7061-2.2966-4.3083-5.5723-1.6023-3.2758-2.4212-7.1212-0.83674-3.8455-0.96136-8.0114-0.14242-4.1659 0.24924-8.2606 0.51629-6.5337 2.5636-13.21 2.0473-6.6583 5.4477-12.355 3.4004-5.7148 8.0826-9.8807 4.6644-4.1659 10.575-5.8216 2.6883-0.78333 5.7682-0.64091 3.0621 0.12462 5.7682 1.1394 2.6883 1.0326 4.6644 2.8841 1.9939 1.8693 2.5102 4.6822 0.64091 3.0799-0.51629 5.964-1.1572 2.8841-3.2045 5.0027-2.0473 2.1186-4.611 3.0087-2.5636 0.89015-4.878-0.12462-0.89015-0.26705-0.37386-0.51629 0.24924-0.12462 0.37386 0 0.12462 0.12462 0.39167 0.12462 1.5311 0.26705 3.4538-0.64091 1.9227-0.89015 3.525-2.5636 1.6023-1.6557 2.5636-3.8989 0.96136-2.2432 0.5875-4.5576-0.39167-1.9227-1.6023-3.3292-1.2284-1.4064-3.1511-2.3144-1.9227-0.89015-4.2905-1.1572-2.3678-0.24924-5.0561 0.26705-4.7534 0.89015-8.8481 4.2905-4.1125 3.4004-7.317 8.3318-3.2045 4.9314-5.3765 10.967-2.172 6.0174-2.9553 12.035zm10.13 42.3q1.7981 0.26705 2.0473 0.39167 0.26705 0.12462-1.9227 0.12462-3.5784 0-7.228-1.1572-3.6674-1.1394-6.872-3.258-3.2045-2.1186-5.7682-5.1985-2.5636-3.0799-3.8455-6.783-2.8129-8.0826-3.3292-15.453-0.51629-7.3705 0.64091-14.812 0.64091-3.9701 2.0473-9.0973 1.4242-5.1273 3.9167-10.504 2.4924-5.3943 6.2133-10.646 3.7208-5.2519 8.9727-9.6136 5.5189-4.611 12.302-6.0886 6.8008-1.4777 12.961-0.44508 6.142 1.0326 10.895 4.4152 4.7356 3.4004 6.2667 8.403 0.14242 0.24924 0.39167 1.0326 0.24924 0.76553 0 0.89015-0.24924 0.12462-0.51629-0.51629-0.24924-0.64091-0.89015-1.4064-5.3943-7.2992-12.177-9.222-6.8008-1.9227-13.406-0.39167-6.5871 1.5311-12.427 5.8394-5.8394 4.2905-9.2932 9.5424-6.0174 8.8481-8.9727 19.298-2.9553 10.433-2.8129 21.203 0.12462 5.2519 1.1394 10.646 1.0326 5.3765 3.7208 10.504 2.5636 5.0027 7.6375 8.3318 5.0561 3.3292 10.308 3.9701zm-18.195-48.567q0.89015-6.6761 3.0799-13.139 2.172-6.4803 5.8216-11.732 3.6496-5.2519 9.0439-9.0973 5.3765-3.8455 12.694-5.3943 2.4212-0.51629 5.5723-0.44508 3.1333 0.071212 6.2845 1.1572 3.1333 1.086 5.8928 3.258 2.7595 2.1898 4.5398 6.0352 1.6735 3.7208 1.2284 7.3705-0.44508 3.6496-2.0473 6.5337-1.6023 2.8841-3.9879 4.8068-2.3678 1.9227-4.6644 2.172-0.39167 0.14242-0.96136 0.071212-0.5875-0.071212-0.5875-0.32045 0-0.24924 0.12462-0.19583 0.14242 0.071212 1.4242-0.44508 0.89015-0.39167 2.1008-1.353 1.2284-0.96136 2.3144-2.4924 1.086-1.5311 1.9939-3.5962 0.89015-2.0473 1.1394-4.4864 0.26705-2.5636-0.64091-4.8602-0.89015-2.3144-2.617-4.1659-1.7269-1.8693-4.0413-3.1511-2.3144-1.2818-4.7356-1.6557-7.5663-1.1572-13.726 1.9761-6.142 3.1511-10.895 8.5989-4.7356 5.4477-7.9402 12.177-3.2045 6.7295-4.878 12.747 0 0.12462-0.24924 0.90795-0.26705 0.76553-0.51629 1.6557-0.24924 0.90795-0.44508 1.6023-0.19583 0.71212-0.32045 0.71212t-0.19583-0.71212q-0.071212-0.69432 0-1.6557 0.071212-0.96136 0.12462-1.7981 0.071212-0.83674 0.071212-1.086zm43.956 45.238q-0.76553 2.8307-2.2432 7.1212-1.4598 4.2905-2.617 7.8867-0.39167 1.0148-0.64091 1.0148-0.51629 0-0.5875-0.44508-0.053409-0.44508-0.053409-0.71212-0.39167-3.4538-0.12462-6.5871 0.24924-3.1511 1.0148-6.2311 0.76553-3.0621 1.8693-6.142 1.086-3.0799 2.2432-6.5337 1.5311-4.4864 2.8129-8.7947 1.2818-4.2905 1.5311-9.667 0-0.64091 0.071212-0.71212 0.071212-0.053409 0.32045-0.053409l0.39167 0.76553q1.2818 2.6883 1.086 6.6583-0.19583 3.9701-1.086 8.2072-0.90795 4.2371-2.1186 8.0826-1.2284 3.8455-1.8693 6.142zm0.39167-20.384q-1.7981 4.878-3.9701 10.13-2.1898 5.2519-4.4864 10.13-0.12462 0.12462-0.44508 0.83674-0.32045 0.69432-0.71212 0.5697-0.24924-0.12462-0.24924-0.83674 0-0.69432 0-1.086 0-1.1572 0.24924-2.8841 0.24924-1.7269 0.64091-3.4538 0.39167-1.7269 0.83674-3.4004 0.44508-1.6735 0.96136-2.8129 0.24924-0.78333 1.1572-4.1659 0.89015-3.4004 1.7803-7.4417 0.90795-4.0413 1.4242-7.8867 0.49848-3.8455 0-5.7682-0.26705-0.64091 0-0.89015 0.24924 0 0.44508 0.32045 0.19583 0.32045 0.44508 0.5697 1.1572 1.7981 1.7981 4.1659 0.64091 2.3678 0.83674 4.878 0.17803 2.4924 0 4.8602-0.19583 2.3856-0.71212 4.1659zm-7.5663 37.814q1.5489 3.2045 3.7208 6.0352 0.39167 0.37386 0.12462 0.64091-0.37386 0.24924-0.76553 0-0.24924-0.12462-0.39167-0.26705-1.7803-1.0148-2.9375-2.0473-1.1572-1.0148-2.3144-3.9701-0.37386-1.0326-0.69432-2.6348-0.32045-1.6023-0.46288-3.0621-0.12462-1.4777-0.053409-2.5102 0.053409-1.0148 0.44508-0.89015 0.64091 0 1.086 1.5311 0.44508 1.5489 0.5875 1.9227 0.49848 1.4064 0.76553 2.6883 0.24924 1.2818 0.89015 2.5636zm36.407-56.008q0.39167-1.6735 0.44508-3.8455 0.071212-2.172-0.32045-4.4864-0.37386-2.3144-1.3352-4.4152-0.96136-2.1186-2.5102-3.6674-0.76553-0.49848-0.89015-0.49848-0.51629 0 0 0.76553 0.76553 1.6557 0.5697 5.1807-0.19583 3.525-0.83674 7.317-0.64091 3.7742-1.3352 6.783-0.71212 3.0265-0.83674 3.6674-0.89015 2.2966-1.6023 5.7682-0.71212 3.4538-0.71212 5.6258-0.12462 0.26705-0.12462 1.0326 0 0.76553 0.39167 0.89015 0.12462 0 0.51629-0.64091 0.37386-0.64091 0.64091-0.89015 2.2966-4.0947 4.4152-8.9727 2.1186-4.878 3.525-9.6136zm0.51629 19.352q0.51629-2.2966 1.6557-5.964 1.1572-3.6496 1.9227-7.5485 0.78333-3.9167 0.78333-7.6909 0-3.792-1.5489-6.2311-0.51629-0.49848-0.76553-0.49848-0.24924 0-0.12462 0.49848 0 4.878-1.086 9.0439-1.1038 4.1659-2.3856 8.136-2.172 6.5337-3.9701 12.765-1.7981 6.2133-1.5311 12.747 0 0.39167 0.053409 0.83674 0.071212 0.44508 0.46288 0.44508 0.24924 0 0.37386-0.24924 0.12462-0.26705 0.39167-0.78333 1.2818-3.0621 2.9375-7.228 1.6735-4.1659 2.8307-8.2784zm-9.0973 22.948q-2.439-2.5636-3.7208-5.697-1.2818-3.1511-1.7981-6.4091-0.51629-3.2758-0.24924-6.6049 0.24924-3.3292 1.0148-6.2845 1.1572-4.611 2.9553-9.222 1.7981-4.6288 3.0799-9.1686 1.2818-4.5576 1.4598-8.9727 0.19583-4.433-1.8515-8.6523-0.39167-0.64091-0.51629-0.64091-0.12462 0-0.12462 0.19583 0 0.17803 0.12462 0.32045 0.39167 3.8455-0.51629 7.9402-0.89015 4.0947-2.2966 8.403-1.4064 4.2905-3.1511 8.8303-1.7269 4.5576-2.8841 9.2932-0.89015 3.4716-1.2106 7.05-0.32045 3.5962 0.44508 7.1212 0.76553 3.525 2.8307 6.7295 2.0473 3.2045 5.8928 5.8928 0.24924 0.26705 0.64091 0.32045 0.37386 0.071212-0.12462-0.44508zm1.0148-4.878q-0.37386-1.0148-0.83674-2.5636-0.44508-1.5311-0.69432-2.9375-0.26705-0.51629-0.64091-1.9227-0.39167-1.4064-0.64091-1.4064-0.51629 0-0.71212 0.89015-0.19583 0.89015-0.19583 2.2432 0 1.353 0.19583 2.8129 0.19583 1.4777 0.5875 2.5102 0.76553 2.5636 1.8515 3.5784 1.086 1.0326 2.8841 1.6735 0.76553 0.39167 1.1572 0.39167 0.12462 0 0.053409-0.19583-0.053409-0.19583-0.17803-0.19583-0.90795-1.0326-1.6023-2.172-0.71212-1.1572-1.2284-2.7061zm10.005-66.263q-0.64091 0-1.9939-0.19583-1.3352-0.19583-1.3352-1.2106 0-0.39167 1.1394-0.96136 1.1572-0.5875 2.5636-1.6735 1.4242-1.086 2.5636-2.8129 1.1572-1.7269 1.1572-4.433 0-3.3292-1.2818-4.9848-0.24924-0.39167-0.64091-0.83674-0.37386-0.44508-0.24924-0.5875 0.24924 0 0.5697 0.19583 0.32045 0.19583 0.44508 0.32045 2.5636 1.4064 3.9167 3.6496 1.353 2.2432 1.353 4.3083 0 4.0947-1.9227 6.6583-1.9227 2.5636-6.2845 2.5636zm-4.7534-5.1273q-1.5311 0.64091-1.5311-0.76553 0-1.0326 0.76553-1.9939 0.76553-0.96136 1.4777-2.1186 0.71212-1.1394 0.96136-2.617 0.24924-1.4777-0.76553-3.6496-0.26705-0.64091-0.90795-1.4242-0.64091-0.76553-0.37386-0.89015 0.24924-0.12462 1.086 0.19583 0.83674 0.32045 1.086 0.44508 2.1898 1.0326 3.2758 3.0799 1.086 2.0473 1.086 3.5784 0 2.439-1.9939 4.0413-1.9761 1.6023-4.1659 2.1186zm-3.703-6.9254q0-0.64091 0.37386-1.4777 0.39167-0.81894 1.2818-0.81894 0.64091 0 1.0326 0.81894 0.37386 0.83674 0.37386 1.4777 0 0.51629-0.37386 1.353-0.39167 0.83674-1.0326 0.83674-0.89015 0-1.2818-0.78333-0.37386-0.76553-0.37386-1.4064zm60.619 26.277v-0.37386q-0.24924-0.14242-0.5697 0.37386-0.32045 0.51629-0.5875 0.76553-1.9227 2.439-3.4538 6.0352-1.5311 3.5784-2.6348 7.5663-1.086 3.9701-1.7803 7.9402-0.71212 3.9701-1.2284 7.05-0.64091 4.3617-1.086 8.2606-0.44508 3.9167-0.83674 7.6375-0.37386 3.7208-0.64091 7.4951-0.24924 3.7742-0.64091 7.7621 0.12462 0.12462 0.12462 0.69432 0 0.5875 0 1.1572 0 0.5697 0 1.0326 0 0.44508 0.26705 0.44508 0.12462 0 0.37386-0.44508 0.26705-0.46288 0.51629-0.96136 0.26705-0.51629 0.39167-1.0326 0.12462-0.51629 0.12462-0.51629 1.4064-3.0799 2.439-7.1746 1.0148-4.0947 1.6557-8.2072 0.14242-1.0148 0.51629-4.2193 0.39167-3.2045 0.90795-7.4417 0.49848-4.2371 1.2106-9.1686 0.71212-4.9314 1.4064-9.489 0.71212-4.5398 1.5489-8.2606 0.81894-3.7208 1.6023-5.6436 0.12462-0.51629 0.24924-0.76553 0.12462-0.24924 0.12462-0.51629zm-4.2193-0.89015q0-0.12462-0.90795-0.12462-0.37386 0-0.76553 0.12462-4.878 0.51629-8.9727 2.617-4.0947 2.1186-7.4951 5.2697-3.4004 3.1333-6.0352 7.1034-2.617 3.9701-4.2905 8.2072-1.7981 4.3617-2.6883 9.222-0.89015 4.878-0.64091 9.1152 0.39167 5.5011 4.878 1.0148 3.8455-3.8455 7.228-8.3318 3.4004-4.4864 6.4091-9.489 3.0265-4.9848 5.7148-10.183 2.6883-5.1985 5.3765-10.45 0.51629-1.0148 0.39167-1.0148-0.26705-0.26705-0.5875 0-0.32045 0.24924-0.32045 0.49848-6.9076 8.8481-12.872 16.931-5.964 8.0648-10.967 16.023-0.64091 0.64091-0.83674 0.37386-0.17803-0.24924-0.053409-0.89015 0.24924-2.9553 0.96136-6.0886 0.69432-3.1333 1.9761-6.3379 3.0799-7.8333 8.8481-13.851 5.7682-6.0174 14.492-8.9727 1.1572-0.51629 1.1572-0.76553zm-6.9254-0.90795q-0.12462-0.24924-0.5875-0.24924-0.44508 0-0.81894 0-3.5962 0-7.5129 2.0473-3.8989 2.0473-7.4951 5.1985-3.5784 3.1333-6.4091 6.9254-2.8129 3.7742-4.2193 7.228-1.7981 4.6288-3.0265 8.9193-1.2106 4.2905-1.3352 8.6523-0.12462 2.2966 0.19583 4.4864 0.32045 2.172 1.2106 4.7356 0.51629 1.5489 1.7269 2.439 1.2284 0.89015 2.5636 1.1572 1.353 0.24924 2.7595 0 1.4064-0.26705 2.439-1.0326 0.12462-0.12462 0.5697-0.51629 0.44508-0.37386 0.90795-0.81894 0.44508-0.46288 0.76553-0.83674 0.32045-0.39167 0.19583-0.64091-0.14242-0.26705-1.2284 0.32045-1.086 0.5697-1.8515 0.69432-2.6883 0.51629-4.0413-0.37386-1.353-0.90795-1.9227-2.6348-0.5697-1.7269-0.51629-3.8455 0.071212-2.1186 0.32045-4.1659 0-0.76553 0.32045-2.6883 0.32045-1.9227 1.086-4.6822 0.78333-2.7595 2.1186-6.0886 1.353-3.3292 3.2758-6.6583 1.9227-3.3292 4.5398-6.1598 2.6348-2.8129 5.3231-5.0027 2.6883-2.172 5.1985-3.5784 2.4924-1.4064 4.2905-1.9227 0.89015-0.26705 1.0326-0.44508 0.12462-0.19583 0.12462-0.46288zm15.506-0.89015v-0.51629q-0.39167 0-0.64091 0.51629-0.12462 0.24924-0.24924 0.64091-3.8455 7.9402-5.3943 16.343-1.5311 8.403-2.2966 17.109-0.78333 8.7235-1.5489 17.572-0.76553 8.8303-3.0799 17.678-0.76553 2.8307-1.5311 5.8928-0.76553 3.0799-2.0473 6.0352-1.2818 2.9375-3.4004 5.5723-2.1186 2.6348-5.697 4.4152-4.1125 2.1898-7.5663 1.8693-3.4716-0.32045-6.4091-1.8693-2.9553-1.5311-5.3943-3.8989-2.4212-2.3678-4.2193-4.2905-0.26705-0.26705-0.51629-0.5875-0.24924-0.32045-0.39167-0.19583-0.24924 0.14242-0.053409 0.5875 0.19583 0.44508 0.32045 0.69432 2.9375 5.5189 8.9727 9.6136 1.4064 1.0326 3.4538 1.7981 2.0473 0.76553 4.433 1.086 2.3678 0.32045 4.8602-0.12462 2.5102-0.44508 4.8068-1.9761 4.2371-2.8307 6.7295-5.964 2.5102-3.1511 4.0413-6.4091 1.5311-3.2758 2.3678-6.7295 0.83674-3.4716 1.6023-6.8008 2.1898-8.7057 3.0087-17.358 0.83674-8.6523 1.353-17.127 0.51629-8.4564 1.2818-16.717 0.76553-8.2784 2.9553-16.094 0.24924-0.51629 0.24924-0.76553zm-15.133 23.963q0.64091-2.6883 1.7447-5.5723 1.086-2.8841 1.7269-5.697 0-0.26705 0.19583-0.90795 0.17803-0.64091 0.053409-0.64091-0.24924-0.12462-0.76553 0.64091-0.51629 0.78333-0.51629 0.90795-1.7981 2.9375-3.2045 6.2133-1.4064 3.2758-2.5636 5.964-0.24924 0.64091-1.086 2.172-0.83674 1.5489-1.6735 3.2758-0.81894 1.7269-1.4064 3.2045-0.5697 1.4777-0.19583 1.7269 0.26705 0 0.78333-0.5697 0.49848-0.5875 0.76553-0.83674 0.37386-0.64091 0.89015-1.353 0.51629-0.69432 1.0326-1.3352-0.76553 3.2045-1.353 5.3053-0.5697 2.1186-1.2106 3.792-0.64091 1.6557-1.4777 3.1333-0.83674 1.4777-2.2432 3.4004-1.0326 1.4064-2.4924 3.0087-1.4777 1.6023-3.347 2.9553-1.8515 1.3352-4.0235 2.172-2.1898 0.83674-4.6288 0.83674-3.0621 0-4.8602-1.6023-1.7981-1.6023-2.6883-3.9701-0.90795-2.3678-1.1572-5.0739-0.26705-2.6883-0.12462-4.9848 0.49848-9.2398 4.2905-18.017 3.7742-8.7769 10.575-15.702 0-0.12462 0.37386-0.51629 0.39167-0.37386 0.39167-0.51629-0.24924-0.24924-0.64091 0l-0.51629 0.26705q-2.2966 1.4064-4.8068 3.8455-2.4924 2.439-4.7356 5.697-2.2432 3.2758-4.1125 7.2458-1.8515 3.9701-3.1333 8.2072-0.64091 2.172-0.96136 5.1807-0.32045 3.0265-0.12462 6.2845 0.19583 3.2758 0.89015 6.5337 0.71212 3.2758 2.3144 5.7682 1.6023 2.5102 4.0947 3.9879 2.5102 1.4598 6.2133 1.2106 3.7208-0.24924 5.964-1.2818 2.2432-1.0326 3.6496-2.172 1.7981-1.4242 3.2045-2.9553 1.4242-1.5311 2.8307-2.9553-0.76553 4.4864-1.4777 7.6375-0.71212 3.1333-1.353 5.964-0.89015 3.8455-1.6557 7.3705-0.76553 3.525-1.6735 6.2133-0.89015 2.6883-2.0473 4.4152-1.1572 1.7269-2.6883 1.9939-1.7981 0-1.7981 0.37386-0.12462 0.39167 0.51629 0.64091 0.64091 0.26705 1.2818 0.39167 1.9227 0.39167 3.6496-0.64091 1.7269-1.0326 3.0799-3.0087 1.3352-1.9939 2.439-4.6822 1.086-2.6883 1.8515-5.5189 1.5311-5.8928 2.5636-11.465 1.0326-5.5723 1.9227-11.732 0.89015-6.0174 1.4777-12.053 0.5697-6.0174 1.9761-12.177zm-14.349 63.592q-0.24924-0.26705-0.71212-0.19583-0.44508 0.053409-0.5697 0.053409-2.172 0.39167-4.2905-0.12462-2.1186-0.51629-4.2905-1.4064-2.439-1.0326-4.4864-2.4924-2.0652-1.4777-4.6288-3.1511-0.24924-0.24924-0.76553-0.51629-0.51629-0.24924-0.51629 0-0.12462 0.14242 0.19583 0.64091 0.32045 0.51629 0.5875 0.78333 1.6557 2.172 3.525 4.0947 1.8515 1.9227 4.8068 3.0799 1.9227 0.76553 3.9701 1.0148 2.0473 0.26705 3.7742 0.071212 1.7269-0.19583 2.7595-0.71212 1.0326-0.49848 0.64091-1.1394zm77.799-84.867v-0.37386q-0.24924-0.14242-0.5697 0.37386t-0.5697 0.76553q-1.9227 2.439-3.4716 6.0352-1.5311 3.5784-2.617 7.5663-1.1038 3.9701-1.7981 7.9402-0.71212 3.9701-1.2284 7.05-0.64091 4.3617-1.086 8.2606-0.44508 3.9167-0.83674 7.6375-0.37386 3.7208-0.64091 7.4951-0.24924 3.7742-0.64091 7.7621 0.14242 0.12462 0.14242 0.69432 0 0.5875 0 1.1572 0 0.5697 0 1.0326 0 0.44508 0.24924 0.44508 0.12462 0 0.39167-0.44508 0.24924-0.46288 0.49848-0.96136 0.26705-0.51629 0.39167-1.0326 0.12462-0.51629 0.12462-0.51629 1.4064-3.0799 2.439-7.1746 1.0326-4.0947 1.6735-8.2072 0.12462-1.0148 0.49848-4.2193 0.39167-3.2045 0.90795-7.4417 0.51629-4.2371 1.2106-9.1686 0.71212-4.9314 1.4064-9.489 0.71212-4.5398 1.5489-8.2606 0.83674-3.7208 1.6023-5.6436 0.12462-0.51629 0.24924-0.76553 0.12462-0.24924 0.12462-0.51629zm-4.2193-0.89015q0-0.12462-0.90795-0.12462-0.37386 0-0.76553 0.12462-4.8602 0.51629-8.9727 2.617-4.0947 2.1186-7.4951 5.2697-3.4004 3.1333-6.0174 7.1034-2.6348 3.9701-4.3083 8.2072-1.7803 4.3617-2.6883 9.222-0.89015 4.878-0.64091 9.1152 0.39167 5.5011 4.878 1.0148 3.8455-3.8455 7.2458-8.3318 3.3826-4.4864 6.4091-9.489 3.0087-4.9848 5.697-10.183 2.6883-5.1985 5.3765-10.45 0.51629-1.0148 0.39167-1.0148-0.24924-0.26705-0.5697 0-0.32045 0.24924-0.32045 0.49848-6.9254 8.8481-12.889 16.931-5.964 8.0648-10.967 16.023-0.64091 0.64091-0.81894 0.37386-0.19583-0.24924-0.071212-0.89015 0.24924-2.9553 0.96136-6.0886 0.71212-3.1333 1.9939-6.3379 3.0621-7.8333 8.8303-13.851 5.7682-6.0174 14.492-8.9727 1.1572-0.51629 1.1572-0.76553zm-6.9254-0.90795q-0.12462-0.24924-0.5697-0.24924-0.46288 0-0.83674 0-3.5962 0-7.4951 2.0473-3.9167 2.0473-7.5129 5.1985-3.5784 3.1333-6.4091 6.9254-2.8129 3.7742-4.2193 7.228-1.7981 4.6288-3.0087 8.9193-1.2284 4.2905-1.353 8.6523-0.12462 2.2966 0.19583 4.4864 0.32045 2.172 1.2106 4.7356 0.51629 1.5489 1.7269 2.439 1.2284 0.89015 2.5636 1.1572 1.353 0.24924 2.7595 0 1.4064-0.26705 2.439-1.0326 0.12462-0.12462 0.5697-0.51629 0.46288-0.37386 0.90795-0.81894 0.44508-0.46288 0.76553-0.83674 0.32045-0.39167 0.19583-0.64091-0.12462-0.26705-1.2284 0.32045-1.086 0.5697-1.8515 0.69432-2.6883 0.51629-4.0413-0.37386-1.3352-0.90795-1.9227-2.6348-0.5697-1.7269-0.51629-3.8455 0.071212-2.1186 0.32045-4.1659 0-0.76553 0.32045-2.6883 0.32045-1.9227 1.1038-4.6822 0.76553-2.7595 2.1008-6.0886 1.353-3.3292 3.2758-6.6583 1.9227-3.3292 4.5576-6.1598 2.617-2.8129 5.3053-5.0027 2.7061-2.172 5.1985-3.5784 2.4924-1.4064 4.2905-1.9227 0.90795-0.26705 1.0326-0.44508 0.12462-0.19583 0.12462-0.46288zm15.506-0.89015v-0.51629q-0.37386 0-0.64091 0.51629-0.12462 0.24924-0.24924 0.64091-3.8455 7.9402-5.3943 16.343-1.5311 8.403-2.2966 17.109-0.76553 8.7235-1.5489 17.572-0.76553 8.8303-3.0621 17.678-0.78333 2.8307-1.5489 5.8928-0.76553 3.0799-2.0473 6.0352-1.2818 2.9375-3.4004 5.5723-2.1186 2.6348-5.697 4.4152-4.1125 2.1898-7.5663 1.8693-3.4538-0.32045-6.4091-1.8693-2.9553-1.5311-5.3765-3.8989-2.439-2.3678-4.2371-4.2905-0.24924-0.26705-0.51629-0.5875-0.24924-0.32045-0.37386-0.19583-0.26705 0.14242-0.071212 0.5875 0.19583 0.44508 0.32045 0.69432 2.9553 5.5189 8.9727 9.6136 1.4064 1.0326 3.4538 1.7981 2.0652 0.76553 4.433 1.086 2.3678 0.32045 4.8602-0.12462 2.5102-0.44508 4.8068-1.9761 4.2371-2.8307 6.7295-5.964 2.5102-3.1511 4.0413-6.4091 1.5489-3.2758 2.3678-6.7295 0.83674-3.4716 1.6023-6.8008 2.1898-8.7057 3.0265-17.358 0.81894-8.6523 1.3352-17.127 0.51629-8.4564 1.2818-16.717 0.76553-8.2784 2.9553-16.094 0.24924-0.51629 0.24924-0.76553zm-15.115 23.963q0.64091-2.6883 1.7269-5.5723 1.086-2.8841 1.7269-5.697 0-0.26705 0.19583-0.90795 0.19583-0.64091 0.053409-0.64091-0.24924-0.12462-0.76553 0.64091-0.51629 0.78333-0.51629 0.90795-1.7803 2.9375-3.2045 6.2133-1.4064 3.2758-2.5636 5.964-0.24924 0.64091-1.086 2.172-0.83674 1.5489-1.6557 3.2758-0.83674 1.7269-1.4242 3.2045-0.5697 1.4777-0.17803 1.7269 0.24924 0 0.76553-0.5697 0.51629-0.5875 0.76553-0.83674 0.39167-0.64091 0.89015-1.353 0.51629-0.69432 1.0326-1.3352-0.76553 3.2045-1.353 5.3053-0.5697 2.1186-1.2106 3.792-0.64091 1.6557-1.4777 3.1333-0.83674 1.4777-2.2432 3.4004-1.0148 1.4064-2.4924 3.0087-1.4777 1.6023-3.3292 2.9553-1.8693 1.3352-4.0413 2.172-2.1898 0.83674-4.611 0.83674-3.0799 0-4.878-1.6023-1.7981-1.6023-2.6883-3.9701-0.90795-2.3678-1.1572-5.0739-0.24924-2.6883-0.12462-4.9848 0.51629-9.2398 4.2905-18.017 3.7742-8.7769 10.575-15.702 0-0.12462 0.39167-0.51629 0.37386-0.37386 0.37386-0.51629-0.24924-0.24924-0.64091 0l-0.51629 0.26705q-2.2966 1.4064-4.8068 3.8455-2.4924 2.439-4.7356 5.697-2.2432 3.2758-4.0947 7.2458-1.8693 3.9701-3.1511 8.2072-0.64091 2.172-0.96136 5.1807-0.32045 3.0265-0.12462 6.2845 0.19583 3.2758 0.89015 6.5337 0.71212 3.2758 2.3144 5.7682 1.6023 2.5102 4.0947 3.9879 2.5102 1.4598 6.2311 1.2106 3.703-0.24924 5.9462-1.2818 2.2432-1.0326 3.6674-2.172 1.7803-1.4242 3.2045-2.9553 1.4064-1.5311 2.8129-2.9553-0.76553 4.4864-1.4777 7.6375-0.69432 3.1333-1.3352 5.964-0.90795 3.8455-1.6735 7.3705-0.76553 3.525-1.6735 6.2133-0.89015 2.6883-2.0473 4.4152-1.1572 1.7269-2.6883 1.9939-1.7981 0-1.7981 0.37386-0.12462 0.39167 0.51629 0.64091 0.64091 0.26705 1.2818 0.39167 1.9227 0.39167 3.6496-0.64091t3.0799-3.0087q1.353-1.9939 2.439-4.6822 1.086-2.6883 1.8515-5.5189 1.5489-5.8928 2.5636-11.465 1.0326-5.5723 1.9227-11.732 0.90795-6.0174 1.4777-12.053 0.5697-6.0174 1.9939-12.177zm-14.367 63.592q-0.24924-0.26705-0.69432-0.19583-0.46288 0.053409-0.5875 0.053409-2.172 0.39167-4.2905-0.12462-2.1186-0.51629-4.2905-1.4064-2.439-1.0326-4.4864-2.4924-2.0473-1.4777-4.611-3.1511-0.26705-0.24924-0.78333-0.51629-0.49848-0.24924-0.49848 0-0.14242 0.14242 0.17803 0.64091 0.32045 0.51629 0.5875 0.78333 1.6557 2.172 3.525 4.0947 1.8515 1.9227 4.8068 3.0799 1.9227 0.76553 3.9701 1.0148 2.0473 0.26705 3.7742 0.071212 1.7447-0.19583 2.7595-0.71212 1.0326-0.49848 0.64091-1.1394zm54.353-94.73q0.76553-2.8307 1.0326-6.8542 0.24924-4.0413 0-8.0826-0.26705-4.0413-1.2284-7.6197-0.96136-3.5962-2.8841-5.5189-0.76553-0.76553-1.2106-0.51629-0.44508 0.26705 0.19583 1.2818 1.2818 2.3144 1.2106 7.1212-0.071212 4.8068-0.83674 10.45-0.76553 5.6258-2.0473 11.269-1.2818 5.6436-2.5636 9.8807-0.64091 1.7803-1.2818 4.4864-0.64091 2.6883-1.353 5.4477-0.69432 2.7417-1.2106 5.3765-0.51629 2.6348-0.76553 4.4152 0 0.39167-0.12462 1.4777-0.14242 1.086 0.24924 1.353 0.24924 0 0.76553-1.086 0.51629-1.1038 0.64091-1.353 3.0799-7.1746 6.2845-15.311 3.2045-8.1538 5.1273-16.219zm-2.9553 31.28q0.64091-2.3144 1.7981-6.0352 1.1572-3.7208 2.3144-8.136 1.1572-4.4152 2.2432-9.222 1.086-4.8068 1.6557-9.3644 0.5875-4.5576 0.39167-8.403-0.19583-3.8455-1.353-6.2667-0.12462-0.39167-0.49848-0.78333-0.39167-0.37386-0.39167 0.64091 0.24924 8.2072-1.6735 16.414-1.9227 8.2072-4.0947 14.866-1.6735 5.2519-3.4004 10.522-1.7269 5.2519-2.9375 10.433-1.2284 5.1985-1.5489 10.201-0.32045 5.0027 0.96136 9.6136 0.51629 1.6557 0.90795 1.6557 0.37386-0.12462 0.37386-1.6557 0-2.3144 0.44508-5.1985 0.46288-2.8841 1.2284-6.0886 0.76553-3.2045 1.6557-6.6049 0.90795-3.3826 1.9227-6.5871zm-2.4212 35.108q-4.4864-0.49848-8.0114-4.4864-3.525-3.9701-4.6822-9.7383-1.1572-5.5011-0.5875-11.216 0.5875-5.697 1.9939-10.7 2.0473-7.6909 4.878-15.827 2.8129-8.136 4.8068-16.094 1.9761-7.9402 2.2432-15.311 0.24924-7.3705-2.5636-13.53-0.26705-0.12462-0.39167-0.5697-0.12462-0.44508-0.39167-0.32045-0.37386 0-0.12462 0.89015 1.0326 5.8928 0.12462 12.765-0.89015 6.8542-2.8841 14.225-1.9761 7.3705-4.4864 15.186-2.4924 7.8155-4.6644 15.631-1.6735 5.7682-2.2432 12.248-0.5875 6.4803 0.81894 13.014 0.78333 3.3292 2.3856 6.0174 1.6023 2.6883 3.7742 4.5576 2.172 1.8515 4.7356 2.8841 2.5636 1.0148 5.2697 0.89015h0.37386q0.12462 0 0.39167-0.12462 0-0.39167-0.76553-0.39167zm-3.8455-6.4091q-2.3144-2.6883-3.7208-6.9076-0.12462-0.39167-0.39167-1.2284-0.24924-0.83674-0.51629-1.6557-0.24924-0.83674-0.49848-1.5489-0.26705-0.69432-0.39167-0.69432-0.51629 0-0.51629 1.6557 0 1.6735 0.39167 3.8455 0.37386 2.1898 1.1572 4.433 0.76553 2.2432 1.7803 3.525 2.0652 2.2966 4.1659 2.8129 2.1186 0.51629 4.3083 0.51629 0.76553 0 1.2106-0.44508 0.44508-0.46288-0.71212-0.71212-3.703-0.39167-6.2667-3.5962zm57.041-37.671q0 6.4091-1.7447 13.388-1.7269 6.9788-4.5398 13.78-2.8307 6.8008-6.4803 12.889-3.6496 6.0886-7.4951 10.433-1.4064 1.5489-1.6735 1.4242-0.24924-0.14242 0.26705-1.9227 0.76553-2.0652 1.9761-4.6288 1.2284-2.5636 2.439-5.0561 1.2284-2.4924 2.439-4.8068 1.2106-2.3144 1.9939-3.8455 0.89015-1.9227 2.0473-5.0561 1.1572-3.1511 2.2432-6.9966 1.086-3.8455 2.1186-8.0648 1.0148-4.2371 1.7803-8.1538 0.78333-3.8989 1.2284-7.1746 0.44508-3.258 0.32045-5.3231-0.12462-2.2966 0.053409-3.0087 0.19583-0.69432 0.46288-0.51629 0.24924 0.19583 0.5697 0.83674t0.5697 1.1572q0.90795 2.5636 1.1572 5.7682 0.26705 3.2045 0.26705 4.878zm-25.263 35.375q-0.89015 1.0148-2.439 1.9227-1.5311 0.89015-2.9375 0.89015-3.0799 0-5.0739-1.7981-1.9761-1.7803-3.1333-4.4152-1.1572-2.6348-1.6023-5.5723-0.44508-2.9553-0.44508-5.2519 0-3.4716 0.69432-8.0114 0.71212-4.5576 2.1898-9.1152 1.4777-4.5398 3.5784-8.5811 2.1186-4.0413 5.0739-6.4803 0.76553-0.49848 1.4064-0.96136 0.64091-0.44508-0.39167 1.353-0.76553 1.4064-1.4598 2.439-0.71212 1.0148-1.1038 2.2966-2.0473 3.7208-3.258 7.8333-1.2284 4.0947-1.9939 8.3318-1.1572 5.6258-1.1572 11.269 0 2.0473 0.19583 4.4864 0.19583 2.439 0.96136 4.611 0.76553 2.1898 2.3678 3.6674 1.6023 1.4598 4.433 1.4598 0.76553 0 1.7981-0.37386 1.0148-0.39167 1.6557-0.76553 1.0326-0.39167 1.0326-0.14242 0 0.26705-0.39167 0.90795zm28.592-33.203q0.51629 1.9227 0.51629 4.4864 0 5.2519-1.5489 11.608-1.5311 6.3379-4.0413 13.139-2.4924 6.783-5.8928 13.708-3.4004 6.9254-7.05 13.334-3.6496 6.4091-7.4951 11.981-3.8455 5.5723-7.2992 9.6848-0.14242 0.12462-0.46288 0.49848-0.32045 0.39167-0.64091 0.71212-0.32045 0.32045-0.5697 0.44508-0.24924 0.12462-0.24924-0.37386 0-0.26705 1.6023-3.4004 1.6023-3.1511 4.0235-7.8155 2.439-4.6822 5.3231-10.13 2.8841-5.4477 5.5723-10.45 2.7061-5.0027 4.6822-8.8481 1.9939-3.8455 2.6348-5.2519 3.7208-8.2072 6.3379-16.468 2.6348-8.2784 3.6496-17.109 0.14242-1.0326 0.19583-1.1038 0.071212-0.053409 0.71212 1.353zm-8.3318-9.489q0 7.1746-1.9939 14.545-1.9761 7.3705-4.9314 14.563-2.9553 7.1746-6.4803 13.904-3.525 6.7295-6.7295 12.498-5.7682 10.771-9.7383 21.844-3.9701 11.091-5.5011 23.144-0.26705 1.4064-0.39167 1.1572-0.12462 0-0.32045-0.71212-0.19583-0.69432-0.32045-1.5311-0.12462-0.83674-0.19583-1.7269-0.053409-0.90795-0.053409-1.5489 0-5.7682 1.2818-11.661 1.2818-5.8928 3.3292-11.536 2.0473-5.6436 4.5398-11.02 2.5102-5.3943 5.0739-10.13h-3.4716q-3.8455 0-6.6583-1.7981-2.8129-1.7981-4.611-4.7356-1.7981-2.9553-2.7595-6.9254-0.96136-3.9701-0.96136-8.3318 0-1.6735 0.39167-4.6822 0.37386-3.0087 1.1394-6.2845 0.78333-3.258 1.9227-6.4091 1.1572-3.1333 2.5636-5.0561 1.0326-1.4064 1.1572-1.1572 0.12462 0.26705-0.24924 1.6735-1.6735 4.8602-2.6348 10.13-0.96136 5.2519-0.96136 10.379 0 2.9375 0.39167 6.4091 0.37386 3.4538 1.6023 6.3379 1.2106 2.8841 3.525 4.8068 2.2966 1.9227 6.2845 1.9227 2.8129 0 5.1273-1.9227 2.2966-1.9227 4.1659-4.7356 1.8515-2.8307 3.3292-6.1598 1.4777-3.3292 2.617-6.142-1.2818 1.7803-3.0087 3.525-1.7269 1.7269-3.6496 3.1333-1.9227 1.4064-3.8455 2.3144-1.9227 0.89015-3.7208 0.89015-1.7981 0-2.8129-1.1572-1.0326-1.1572-1.6023-2.8841-0.5875-1.7269-0.71212-3.525-0.12462-1.7981-0.12462-3.2045 0-4.611 0.5697-9.2932 0.5875-4.6822 1.8693-9.222 1.2818-4.5576 3.4004-8.7235 2.1008-4.1659 5.1807-7.6197 0.26705-0.39167 0.64091-0.71212 0.39167-0.32045 0.71212-0.44508t0.32045 0.071212q0 0.17803-0.51629 1.086-3.7208 6.9254-6.0886 15.382-2.3678 8.4564-2.3678 16.397 0 0.78333 0.053409 2.5102 0.071212 1.7269 0.39167 3.525t1.0326 3.1333q0.69432 1.353 1.8515 1.353 0.39167 0 1.0326-0.39167 5.3765-2.6883 9.0973-7.4239 3.7208-4.7534 6.142-10.575 2.439-5.8394 3.525-12.053 1.1038-6.2133 1.2284-11.857 0-2.0473 0.24924-2.1898 0.26705-0.12462 0.90795 2.1898 0.76553 3.7208 0.76553 6.6583zm-24.479 75.894q0 0.89015-0.5875 2.9375-0.5697 2.0473-1.3352 4.3617-0.78333 2.3144-1.5489 4.4864-0.76553 2.172-1.1572 3.3292-1.0148 2.8307-1.5311 5.5723-0.51629 2.7595-1.1572 5.7148 0 0.24924-0.12462 0.76553-0.12462 0.51629-0.51629 0.51629-0.24924 0-0.37386-0.64091-0.14242-0.64091-0.14242-0.90795-0.24924-1.0148-0.32045-2.8129-0.053409-1.7981 0.071212-2.8129 0.39167-3.2045 1.4064-6.872 1.0326-3.6496 2.2432-6.783 1.2284-3.1511 2.5102-5.1985 1.2818-2.0473 2.172-2.0473 0.39167 0 0.39167 0.39167zm42.941-21.542q-0.64091 0-1.9939-0.19583-1.353-0.19583-1.353-1.2106 0-0.39167 1.1572-0.96136 1.1572-0.5875 2.5636-1.6023 1.4064-1.0326 2.5636-2.7595 1.1572-1.7269 1.1572-4.4152 0-3.347-1.2818-5.0027-0.24924-0.39167-0.64091-0.83674-0.39167-0.44508-0.24924-0.5697 0.24924 0 0.5697 0.17803 0.32045 0.19583 0.44508 0.32045 2.5636 1.4242 3.9167 3.6674 1.3352 2.2432 1.3352 4.2905 0 4.0947-1.9227 6.6049-1.9227 2.4924-6.2667 2.4924zm-4.7534-5.0027q-1.5311 0.64091-1.5311-0.76553 0-1.0326 0.76553-1.9939 0.76553-0.96136 1.4777-2.1008 0.69432-1.1572 0.96136-2.6348 0.24924-1.4777-0.76553-3.6496-0.26705-0.64091-0.90795-1.4064-0.64091-0.78333-0.37386-0.90795 0.24924-0.12462 1.086 0.19583 0.83674 0.32045 1.086 0.44508 2.172 1.0326 3.2758 3.0799 1.086 2.0473 1.086 3.5962 0 2.4212-1.9939 4.0235-1.9761 1.6023-4.1659 2.1186zm-3.7208-6.9254q0-0.64091 0.39167-1.4598 0.39167-0.83674 1.2818-0.83674 0.64091 0 1.0326 0.83674 0.37386 0.81894 0.37386 1.4598 0 0.51629-0.37386 1.353-0.39167 0.83674-1.0326 0.83674-0.89015 0-1.2818-0.76553-0.39167-0.78333-0.39167-1.4242zm42.692-17.554q0.51629-3.2045 1.7269-6.4803 1.2284-3.258 2.8841-6.0174 1.6735-2.7595 3.7208-4.611 2.0473-1.8693 4.3617-2.5102 2.9375-0.64091 4.4152-0.24924 1.4777 0.39167 1.7269 1.1572 0.39167 1.1572 0 2.2966-0.37386 1.1572-1.086 2.0652-0.69432 0.89015-1.5311 1.6023-0.83674 0.69432-1.353 0.81894-0.64091 0.26705-0.44508 0.64091 0.19583 0.39167 1.2106 0.14242 1.1572-0.14242 2.3144-0.90795 1.1572-0.76553 2.1186-1.9227 0.96136-1.1572 1.4777-2.4924 0.49848-1.353 0.37386-2.7595-0.24924-1.4064-1.3352-2.439-1.1038-1.0148-2.6348-1.5311-1.5311-0.51629-3.4538-0.51629-1.9227 0-3.5962 0.64091-3.3292 1.2818-5.8394 3.7742-2.4924 2.5102-4.3439 5.7682-1.8693 3.2758-3.0265 7.05-1.1394 3.792-1.9227 7.6375-1.0148 4.7356-0.64091 9.2932 0.39167 4.5398 2.9553 7.1034 1.2818 1.2818 3.3292 1.7981 2.0473 0.51629 4.3617 0.44508 2.3144-0.053409 4.6822-0.81894 2.3678-0.78333 4.4152-2.0652 0.51629-0.24924 0.83674-0.49848 0.32045-0.26705 0.071212-0.39167-0.14242-0.12462-1.0326 0.12462-6.2845 1.5489-9.7383 1.2818-3.4716-0.24924-4.9314-2.2966-1.4777-2.0652-1.2818-5.8394 0.17803-3.7742 1.2106-9.2932zm1.5311 26.402q-4.0947-0.24924-7.8155-2.617-3.7208-2.3856-5.1273-5.964-1.4064-3.7208-1.7981-7.1212-0.37386-3.4004-0.12462-6.6049 0.51629-6.6583 2.6348-13.388 2.1186-6.7295 6.6049-12.106 2.8129-3.347 5.6258-5.5902 2.8307-2.2432 7.4417-3.525 2.3144-0.64091 5.0027-0.76553t5.3231 0.5875q2.617 0.69432 4.9314 2.3678 2.2966 1.6557 4.0947 4.4864 0.39167 1.2818 0.76553 1.2818 0.39167-0.39167 0-1.4064-0.76553-4.1125-4.1659-6.5515-3.3826-2.4212-7.9402-3.0621-4.5576-0.64091-9.4178 0.44508-4.878 1.086-8.5989 4.1659-4.9848 3.9701-8.3852 9.1686-3.4004 5.1807-5.3231 10.949-1.9227 5.7682-2.3144 11.928-0.37386 6.142 0.90795 12.053 0.76553 3.8455 2.617 6.2133 1.8693 2.3678 4.3083 3.7208 2.4212 1.3352 5.2519 1.7269 2.8129 0.37386 5.6436 0.24924 0.76553 0 0.96136-0.12462 0.17803-0.12462 0.17803-0.24924 0-0.26705-1.2818-0.26705zm-9.9875-30.888q0 0.12462-0.071212 0.64091-0.053409 0.51629-0.12462 1.0326-0.071212 0.49848-0.071212 0.96136 0 0.44508 0.26705 0.44508 0.24924 0 0.83674-1.2818 0.5697-1.2818 0.5697-1.4064 3.3292-7.6909 7.9402-13.602 0.39167-0.37386 1.5489-1.7269 1.1572-1.3352 3.0799-2.7595 1.9227-1.4064 4.611-2.4212 2.6883-1.0326 6.0174-0.64091 3.4716 0.37386 5.6436 2.5636 2.172 2.172 1.5311 5.1273-0.49848 2.8129-1.9761 4.7356-1.4777 1.9227-2.8841 2.5636-1.0326 0.39167-0.5875 0.51629 0.46288 0.12462 0.71212 0.12462 1.5311-0.12462 3.2758-1.2106 1.7269-1.1038 3.0087-2.8307 1.2818-1.7269 1.7981-3.8989 0.49848-2.1898-0.39167-4.7534-1.0326-2.6883-2.9553-4.2905-1.9227-1.6023-4.2193-2.3144-2.3144-0.69432-4.6822-0.69432t-4.0413 0.37386q-4.8602 1.2818-8.2072 3.7208-3.3292 2.439-5.4477 5.7148-2.1008 3.258-3.258 7.1746-1.1572 3.8989-1.9227 8.136zm25.886 23.197q0.51629-0.76553 0.44508-1.0148-0.053409-0.26705-0.32045-0.19583-0.24924 0.053409-0.69432 0.37386-0.44508 0.32045-0.71212 0.46288-2.5636 1.7803-5.697 2.8841-3.1511 1.086-6.9966 1.086-1.9227 0-4.5398-1.353-2.6348-1.3352-4.0413-2.7595-0.51629-0.64091-1.086-1.2106-0.5875-0.5697-0.96136-0.44508-0.51629 0.51629 0 1.4064 1.9227 4.4864 4.8602 5.7682 2.9553 1.2818 6.2845 1.2818 1.9227 0 3.9167-0.51629 1.9761-0.51629 3.8455-1.3352 1.8515-0.83674 3.3292-1.9939 1.4777-1.1572 2.3678-2.439zm49.866-27.292q0.39167-3.4716 0.12462-7.317-0.24924-3.8455-1.6023-7.1034-1.3352-3.2758-4.0947-5.4477-2.7595-2.1898-7.2458-2.1898-6.0174 0-10.504 3.2758-4.4864 3.258-7.6909 8.0648-3.2045 4.8068-5.0027 10.255-1.7981 5.4477-2.3144 9.9341-0.76553 6.1598-0.19583 10.646 0.5875 4.4864 2.1186 7.3705 1.5489 2.8841 3.9167 4.2905 2.3678 1.4064 5.1807 1.4064 3.9879 0.14242 8.403-2.2432 4.4152-2.3678 8.2606-6.6583 3.8455-4.2905 6.7295-10.504 2.8841-6.2311 3.9167-13.78zm-41.267 8.8303q0.49848-5.1273 2.5636-11.269 2.0473-6.1598 5.697-11.412 3.6496-5.2519 8.7769-8.7769 5.1273-3.525 11.928-3.525 5.1273 0 8.4564 2.439 3.3292 2.4212 5.1273 6.2133 1.7981 3.7742 2.3144 8.2072 0.49848 4.4152 0 8.3852-1.1572 9.2398-4.4864 16.023-3.347 6.8008-7.8333 11.341-4.4864 4.5576-9.4712 6.8008-5.0027 2.2432-9.6136 2.2432-3.4716 0-6.2311-1.5311-2.7417-1.5489-4.611-4.8068-1.8515-3.2758-2.5636-8.3318-0.69432-5.0739-0.053409-11.999zm14.349 18.088q-0.64091 0-1.2818-0.46288-0.64091-0.44508-1.0326-1.086-0.37386-0.64091-0.49848-1.2818-0.14242-0.64091 0.49848-0.89015 0.39167-0.12462 1.0326 0.89015 0.64091 1.0326 1.4064 1.0326 1.2818 0 3.0087-1.6735 1.7447-1.6557 3.347-3.8989 1.6023-2.2432 2.8129-4.433 1.2106-2.172 1.7269-3.2045 0.51629-1.0148 1.0326-2.617 0.51629-1.6023 0.96136-3.2758 0.44508-1.6735 0.76553-3.2758 0.32045-1.6023 0.44508-2.7417 0.64091-5.7682-0.24924-8.9193-0.90795-3.1333-2.9553-3.1333-1.5311 0-3.2045 0.96136-1.6557 0.96136-3.1333 2.4924-1.4777 1.5489-2.6348 3.4004t-1.6557 3.7742q-0.64091 2.1898-0.90795 2.1898-0.37386 0-0.37386-2.1898 0.37386-2.4212 1.6557-4.8068 1.2818-2.3678 3.2045-4.2193 1.9227-1.8693 4.2371-3.0799 2.2966-1.2106 4.7356-1.2106 2.439 0 3.6496 1.7269 1.2284 1.7269 1.7447 4.2193 0.49848 2.5102 0.44508 5.1273-0.071212 2.6348-0.32045 4.1659-0.51629 3.4716-1.6023 6.7295-1.086 3.2758-2.6348 6.6049-0.76553 1.5489-2.2966 3.792-1.5489 2.2432-3.525 4.2905-1.9939 2.0473-4.2371 3.525-2.2432 1.4777-4.1659 1.4777zm4.0947 2.4212q0.14242 0.78333-1.2106 1.2818-1.353 0.51629-2.7595 0.51629-3.9701-0.12462-6.0886-2.5636-2.1186-2.439-2.9375-5.7682-0.83674-3.3292-0.78333-6.9254 0.071212-3.5784 0.32045-6.0174 0.51629-4.2371 2.0652-9.489 1.5311-5.2519 4.3439-9.8629 2.8307-4.611 6.9254-7.7621 4.1125-3.1333 9.7383-3.1333 3.7208 0 5.964 1.9227 2.2432 1.9227 3.3292 4.7356 1.1038 2.8307 1.2818 6.0886 0.19583 3.2758-0.17803 5.964-0.26705 2.9553-0.90795 5.3765-0.64091 2.439-1.7981 5.3943-0.37386 0.89015-1.0148 2.0473-0.64091 1.1572-1.4064 1.0326-0.39167-0.14242-0.19583-1.0326 0.19583-0.89015 0.51629-2.2432 0.32045-1.353 0.69432-2.8129 0.39167-1.4777 0.51629-2.7595 0.24924-2.1898 0.32045-5.4477 0.071212-3.2758-0.51629-6.3557-0.5697-3.0621-2.1186-5.2519-1.5311-2.172-4.611-2.172-4.4864 0-8.2606 2.8841-3.792 2.8841-6.6049 7.05-2.8129 4.1659-4.5576 8.7057-1.7269 4.5576-2.1008 8.0114-0.26705 2.0652-0.14242 5.1273 0.14242 3.0799 0.96136 6.0886 0.83674 3.0265 2.7595 5.1985 1.9227 2.172 5.2519 2.3144 1.0326 0.12462 1.9939-0.19583 0.96136-0.32045 1.2106 0.053409zm62.56-26.277q-1.7981 7.6909-2.439 16.023-0.64091 8.3318 1.0326 16.165 0.12462 0.24924-0.071212 0.5697-0.19583 0.32045-0.44508-0.32045-2.172-4.2371-3.0087-8.5811-0.83674-4.3617-0.83674-8.6523 0-4.3083 0.64091-8.6523 0.64091-4.3617 1.6735-8.5989 0.12462-0.51629 0.49848-2.1186 0.39167-1.6023 0.5875-3.2045 0.19583-1.6023-0.071212-2.4924-0.24924-0.89015-1.5311 0-2.9553 2.172-5.4477 5.4477-2.5102 3.2758-4.0413 6.3379-0.12462 0.26705-0.5697 1.4777-0.46288 1.2284-0.90795 2.6348-0.44508 1.4064-0.83674 2.7595-0.37386 1.3352-0.49848 1.7269-1.0326 3.9701-2.5636 7.5663-1.5489 3.5784-2.5636 6.6583-0.39167 1.2818-0.51629 1.1572-0.64091 0-0.64091-1.1572-0.64091-6.2845 1.086-12.106 1.7269-5.8394 3.7742-11.999 1.2818-3.9701 2.3856-7.8689 1.086-3.9167 0.96136-8.6523-0.14242-3.347 2.4924-6.5515 2.6348-3.2045 7.8867-5.3765 3.0799-1.2818 5.7682-1.1572 2.6883 0.12462 5.0027 1.1572 2.2966 1.0326 4.0947 2.9553 1.7981 1.9227 2.9553 4.2193 0.76553-1.4064 2.2966-3.0087 1.5489-1.6023 3.6496-2.7595 2.1186-1.1572 4.7534-1.7269 2.617-0.5697 5.8216-0.071212 2.3144 0.39167 4.0413 1.5489 1.7269 1.1572 3.0799 2.617 1.353 1.4777 2.1186 3.0265 0.76553 1.5311 1.1572 2.5636 1.4064 4.2193 1.4598 9.4712 0.071212 5.2697-1.086 9.489-1.9227 6.9254-4.5398 12.302-2.6348 5.3943-3.525 9.6136-0.39167 1.4242-0.51629 1.4242-0.51629 0-0.5875-0.51629-0.053409-0.51629-0.17803-1.0326-0.26705-2.6883 0.69432-6.8542 0.96136-4.1659 2.2432-8.9727 1.2818-4.8068 2.3144-9.8095 1.0148-5.0027 0.89015-9.2932-0.12462-4.2905-1.9227-7.4951-1.7981-3.2045-6.142-4.3617-3.4716-0.89015-6.0886-0.053409-2.6348 0.81894-4.433 1.8515-2.6883 1.7981-3.4538 3.7742-0.76553 1.9939-0.76553 3.792 2.172-3.9701 5.7682-6.3557 3.5784-2.3678 8.4564-0.81894 3.2045 1.0148 4.5398 3.8455 1.353 2.8129 1.4777 6.2667 0.12462 3.4716-0.69432 6.9254-0.83674 3.4716-1.9939 5.7682-0.12462 0.26705-0.64091 1.2284-0.51629 0.96136-1.1572 0.81894-0.12462 0-0.053409-1.0148 0.053409-1.0326 0.053409-1.5489 0.39167-1.5311 0.51629-3.5784t0.071212-4.2371q-0.071212-2.172-0.32045-4.2193-0.26705-2.0652-0.78333-3.4716-0.64091-1.7981-1.9761-2.3678-1.353-0.5697-2.8841-0.32045-1.5489 0.24924-3.0087 1.0326-1.4777 0.76553-2.5102 1.6557-2.8129 2.439-3.4538 4.433-0.64091 1.9761-1.0326 4.5398 1.5489-2.5636 3.792-4.8068 2.2432-2.2432 4.4152-3.6496 1.1572-0.51629 1.9939-0.39167 0.81894 0.14242 1.4064 0.71212 0.5697 0.5697 0.83674 1.4064 0.24924 0.83674 0.37386 1.4777 0.39167 4.2371-0.32045 7.4417-0.69432 3.2045-1.6557 6.5871-0.96136 3.4004-1.5489 7.5663-0.5697 4.1659 0.19583 10.326 0.64091 4.4864 2.6883 8.0648 2.0473 3.5962 5.1273 4.4864 0.90795 0.26705 0.44508 0.39167-0.44508 0.12462-0.69432 0.12462-2.3144-0.24924-4.3617-1.7981-2.0473-1.5311-3.6496-3.8455-1.6023-2.2966-2.6348-5.1273-1.0148-2.8129-1.1572-5.6258-0.37386-5.7682 0.71212-10.967 1.086-5.1985 2.1186-8.9015 0.24924-1.0326 0.5697-2.6348 0.32045-1.6023 0.26705-2.7595-0.071212-1.1572-0.83674-1.3352-0.76553-0.19583-2.5636 1.4598-2.5636 2.3144-4.4864 5.0027-1.9227 2.6883-2.8307 6.0352-2.9375 10.628-8.4564 20.367-0.24924 0.51629-0.64091 0.96136-0.37386 0.46288-0.51629 0.32045-0.24924 0-0.12462-0.64091 0.12462-0.64091 0.26705-1.2818 0.76553-4.4864 1.9227-8.7057 1.1394-4.2371 2.2432-8.6523 1.086-4.433 1.9227-9.0973 0.81894-4.6822 0.96136-10.077-0.26705-1.7803-0.71212-3.703-0.44508-1.9227-2.6348-4.4864-2.5636-2.8307-6.0174-2.9553-3.4538-0.12462-5.6436 0.64091-1.4064 0.39167-3.0087 1.4064-1.6023 1.0326-2.9553 2.439-1.3352 1.4064-2.172 3.2758-0.83674 1.8515-0.44508 4.0235 1.4064-2.5636 3.258-4.9848 1.8693-2.439 4.8068-3.7208 0.90795-0.39167 2.3144-0.71212 1.4064-0.32045 2.9553-0.37386 1.5311-0.071212 3.0621 0.44508 1.5489 0.51629 2.7061 1.9227 2.0473 2.5636 2.2432 4.611 0.17803 2.0473 0.053409 4.0947-0.24924 3.7208-1.1572 6.9966-0.89015 3.258-2.2966 6.2133-0.12462 0.39167-0.64091 1.2106-0.51629 0.83674-0.76553 0.83674-0.26705-0.12462-0.32045-1.086-0.071212-0.96136 0.17803-1.353 0.14242-1.4064 0.39167-4.1659 0.24924-2.7417 0.32045-5.7682 0.071212-3.0087-0.32045-5.5011-0.39167-2.5102-1.6735-3.525-1.1394-0.90795-3.4538-0.51629-2.3144 0.39167-4.0947 1.7981-1.7981 1.4064-3.0265 2.6883-1.2106 1.2818-1.9761 2.6348-0.76553 1.3352-1.353 2.9375-0.5697 1.6023-0.96136 3.792 1.5489-2.9553 3.5962-5.5189 2.0473-2.5636 5.0027-4.3617 2.0473-1.4064 3.2045-1.1572 1.1394 0.26705 1.6023 1.4242 0.44508 1.1394 0.37386 2.9375-0.053409 1.7981-0.19583 3.3292-0.24924 2.0652-0.64091 4.2371-0.37386 2.172-0.89015 4.0947zm36.656 32.686t-0.64091 0q-0.24924 0-0.64091-0.12462-1.7981-0.37386-3.8455-1.6023-2.0473-1.2106-3.4538-4.5398-0.51629-1.2818-0.76553-3.347-0.26705-2.0473-0.26705-3.9701 0-1.9227 0.26705-3.3292 0.24924-1.4064 0.76553-1.2818 0.12462 0 0.32045 0.5697 0.19583 0.5875 0.32045 1.353 0.12462 0.76553 0.24924 1.5311 0.12462 0.78333 0.12462 1.1572 0.26705 1.7981 0.64091 3.525 0.39167 1.7269 1.0326 3.1511 0.64091 1.9227 2.3678 4.0235 1.7269 2.1186 3.1511 2.3856 0.64091 0.24924 0.37386 0.49848zm-34.484-0.24924q0.26705 0.89015 0 0.89015-0.64091 0-1.0148-0.64091-0.64091-0.76553-1.2818-2.2432-0.64091-1.4598-0.51629-5.0561 0-1.4064 0.24924-3.4004 0.26705-1.9761 0.5875-3.7208 0.32045-1.7269 0.69432-2.8841 0.39167-1.1394 0.90795-1.0148 0.12462 0 0.19583 0.5697 0.053409 0.5875 0.12462 1.353 0.053409 0.76553 0.053409 1.4777 0 0.69432 0 0.96136 0 2.0473-0.12462 3.6496-0.12462 1.6023-0.12462 3.4004 0 2.4212 0 4.0947 0 1.6735 0.24924 2.5636zm-18.96-42.549q-1.4064 4.8602-3.792 9.6136-2.3678 4.7356-3.8989 9.0973-0.12462 0.24924-0.44508 0.96136-0.32045 0.69432-0.83674 0.5697-0.26705-0.12462-0.32045-0.83674-0.071212-0.69432-0.071212-1.086 0-2.0473 0.71212-5.4477 0.69432-3.4004 1.4777-5.5723 0.24924-0.76553 0.96136-3.9167 0.69432-3.1333 1.2818-6.8542 0.5697-3.7208 0.76553-7.1746 0.19583-3.4538-0.71212-5.0027-0.51629-0.89015 0-0.89015 0.39167 0 1.0326 0.64091 1.5311 1.4064 2.4924 3.4538 0.96136 2.0473 1.4064 4.2905 0.46288 2.2432 0.39167 4.433-0.071212 2.172-0.44508 3.7208zm-8.4564 42.674q-3.9879-2.6883-6.0886-5.8928-2.1186-3.2045-2.8841-6.6583-0.78333-3.4716-0.5875-7.05 0.19583-3.5962 0.96136-7.05 1.0326-4.6288 2.6348-9.1686 1.6023-4.5576 3.0799-8.8481 1.4598-4.2905 2.2966-8.403 0.83674-4.0947 0.19583-7.8155 0-0.51629 0.12462-0.51629 0.26705 0 0.64091 0.64091 2.3144 4.1125 2.1898 8.4742-0.14242 4.3439-1.4242 8.9015-1.2818 4.5576-3.1333 9.222-1.8515 4.6822-2.8841 9.4356-0.64091 2.9375-0.83674 6.2133-0.19583 3.258 0.44508 6.4625 0.64091 3.2045 2.1186 6.2845 1.4777 3.0799 4.0413 5.5189 0.51629 0.24924 0.24924 0.51629-0.24924 0.24924-0.5697 0.053409-0.32045-0.19583-0.5697-0.32045zm4.8602 0.51629q-0.37386 0.24924-1.0148-0.39167-1.4242-1.0148-2.7595-2.172-1.353-1.1572-2.6348-3.7208-0.51629-0.89015-0.76553-2.2966-0.24924-1.4242-0.24924-2.7595 0-1.353 0.17803-2.2432 0.19583-0.90795 0.5875-0.90795 0.51629 0.14242 0.83674 1.4242t0.5697 1.6557q0.51629 1.4064 0.89015 2.6348 0.39167 1.2106 0.90795 2.3678 0.76553 1.7981 1.5311 3.0799 0.76553 1.2818 1.7981 2.5636 0.12462 0.12462 0.24924 0.37386 0.14242 0.26705-0.12462 0.39167z" fill="Yellow"/>
</svg>
